<?xml version="1.0" encoding="UTF-8"?>
<svg id="Layer_1" xmlns="http://www.w3.org/2000/svg" viewBox="0 0 1200 387.06">
  <defs>
    
  </defs>
  <path class="cls-1" d="M266.72,78.43h2.7c34.54,0,69.09-.02,103.63.01,12.81.01,25.35,1.69,37.01,7.36,18.16,8.83,28.47,23.31,30.63,43.44,1.44,13.42.05,26.52-5.95,38.72-10.6,21.56-27.57,34.88-51.66,38.51-3.7.56-7.44.82-11.33,1.24v35.72h56.31v60.14h-29.95v-29.81h-56.65v-66.2h-44.71v95.95h-30.03V78.43ZM296.87,103.9v78.18c.72,0,1.26,0,1.81,0,20.86,0,41.73.2,62.58-.11,7.21-.11,14.56-.83,21.58-2.44,13.9-3.18,23.48-11.53,26.94-25.78,1.77-7.3,1.79-14.74.16-22.07-2.62-11.72-8.56-21.09-20.54-24.95-5.23-1.68-10.92-2.65-16.41-2.72-24.54-.28-49.08-.12-73.61-.12-.79,0-1.57,0-2.5,0Z"></path>
  <path class="cls-1" d="M734.59,303.68V78.56c.94-.05,1.79-.12,2.64-.12,25.42,0,50.85-.07,76.27.02,17.93.06,35.49,2.43,52.16,9.44,27.17,11.42,43.57,31.9,50.48,60.26,2.67,10.97,3.81,22.11,4.04,33.38.36,18.1-1.09,35.99-5.97,53.48-6.12,21.96-17.6,40.2-37.28,52.59-12.2,7.69-25.57,12.38-39.82,14.07-10.28,1.22-20.68,1.79-31.04,1.92-22.78.28-45.57.09-68.36.09h-3.13ZM764.79,104.02c-.04.91-.1,1.61-.1,2.31,0,56.45.01,112.89-.06,169.34,0,2.23.76,2.59,2.75,2.58,14.71-.08,29.42.08,44.13-.1,6.29-.08,12.66-.3,18.85-1.31,14.95-2.44,28.18-8.63,38.66-19.83,9.07-9.69,14.11-21.53,17.39-34.17,3.19-12.28,3.84-24.82,3.55-37.47-.25-10.88-1.3-21.64-4-32.19-3.82-14.87-10.93-27.68-23.7-36.81-12.35-8.83-26.51-12.05-41.33-12.35-18.14-.37-36.3-.11-54.45-.12-.47,0-.95.06-1.7.11Z"></path>
  <path class="cls-1" d="M1107.76,78.53h30.1c.04.84.12,1.68.12,2.52,0,47.74.04,95.49-.02,143.23-.02,13.49-1.87,26.71-7.05,39.28-8.78,21.29-25.03,34.14-46.74,40.55-15.6,4.61-31.58,5.17-47.69,4.02-12.26-.87-24.15-3.3-35.52-8.08-23.55-9.89-37.45-27.61-41.9-52.52-1.55-8.66-2.29-17.58-2.33-26.38-.22-46.47-.1-92.93-.1-139.4,0-1.02,0-2.04,0-3.2h30.22c0,1.08,0,2.09,0,3.1,0,47.42-.04,94.85.03,142.27.01,9.29,1.36,18.43,4.87,27.12,6.1,15.09,17.28,24.65,32.75,29.16,14.85,4.33,29.96,4.73,44.96.92,19.17-4.87,30.85-17.4,35.78-36.38,1.83-7.06,2.54-14.26,2.54-21.55-.01-47.11,0-94.21,0-141.32v-3.38Z"></path>
  <path class="cls-1" d="M62.13,78.43c1.03,0,1.89,0,2.75,0,32.14,0,64.29-.01,96.43,0,10.44,0,20.72,1.17,30.6,4.74,17.87,6.46,29.48,18.93,34.77,37.05,4.79,16.45,4.84,33.1,0,49.54-6.29,21.39-20.74,34.4-42.38,39.51-7.72,1.83-15.59,2.37-23.53,2.35-22.31-.04-44.62-.02-66.92-.01-.46,0-.92.07-1.67.14v91.8h-30.05V78.43ZM92.33,186.22h3.16c19.03,0,38.06.13,57.09-.08,5.79-.07,11.66-.64,17.34-1.77,14.55-2.88,24.45-11.24,28.34-25.87,1.87-7.02,2.08-14.19,1.09-21.37-1.78-12.88-7.88-22.8-20.04-28.33-7.3-3.32-15.12-4.73-23.05-4.81-20.79-.2-41.58-.09-62.37-.09-.53,0-1.06.14-1.57.21v82.1Z"></path>
  <path class="cls-1" d="M638.2,79.06v29.96h-104.84v29.82h-29.93v104.83h-30.09v-104.82h29.76v-30.01h30.06v-29.77h105.05Z"></path>
  <path class="cls-1" d="M668.06,138.93h30.11v104.77h-29.86v29.9h-29.92v29.94h-105v-29.93h104.64c0-1.04,0-1.87,0-2.71,0-8.38.05-16.77-.04-25.15-.02-1.82.56-2.3,2.33-2.28,8.32.08,16.63.04,24.95.04.86,0,1.73,0,2.79,0v-104.57Z"></path>
  <path class="cls-1" d="M653.26,138.91c-8.5.01-15.31-6.74-15.23-15.1.08-8.25,6.93-15.04,15.18-15.02,8.29.01,15.04,6.78,15.04,15.09,0,8.42-6.59,15.03-14.98,15.04Z"></path>
</svg>